Coordinates
version=1
nRows=17
nColumns=24
inDegrees=yes

Units are S.I. units (second, meters, Newtons, ...)
Angles are in degrees.

endheader
time	pelvis_tilt	pelvis_list	pelvis_rotation	pelvis_tx	pelvis_ty	pelvis_tz	hip_flexion_r	hip_adduction_r	hip_rotation_r	knee_angle_r	ankle_angle_r	subtalar_angle_r	mtp_angle_r	hip_flexion_l	hip_adduction_l	hip_rotation_l	knee_angle_l	ankle_angle_l	subtalar_angle_l	mtp_angle_l	lumbar_extension	lumbar_bending	lumbar_rotation
      1.43000000	     -9.50301797	     -3.01342764	      0.91993204	     -0.53102373	      1.21768216	     -0.86893535	     -2.08046381	     11.26204102	      7.49486152	    -10.56874308	     11.49846622	     -6.08977685	      5.29241277	     33.79152320	      3.71300738	      5.60840515	     -7.41117954	     -0.89222998	     -2.98137404	      8.07340102	     -4.65341783	      3.39374392	      5.75752016
      1.43500000	     -9.48610908	     -3.06041028	      0.86113084	     -0.52542204	      1.21728652	     -0.86911184	     -2.17943810	     11.29240241	      7.52457638	    -11.24192079	     11.62318710	     -5.68630610	      5.68896984	     33.89813223	      3.79390653	      5.70360924	     -8.16909445	     -1.28338427	     -2.88499922	      8.19468467	     -4.63090665	      3.37783460	      5.69686863
      1.44000000	     -9.43428709	     -3.08945751	      0.83013947	     -0.51975547	      1.21697818	     -0.86932202	     -2.30277942	     11.29510141	      7.46949728	    -11.93555202	     11.72943101	     -5.20074987	      6.22890495	     33.96194615	      3.90990721	      5.86557846	     -8.96669469	     -1.78252935	     -2.88758180	      8.33115673	     -4.63848338	      3.33992582	      5.60986858
      1.44500000	     -9.36694136	     -3.10337195	      0.80727710	     -0.51404388	      1.21673868	     -0.86953784	     -2.41610000	     11.27790899	      7.37803538	    -12.67459210	     11.80973430	     -4.68482724	      6.83073292	     34.00455556	      4.04398239	      6.06512179	     -9.79100156	     -2.37516163	     -2.96872297	      8.46817251	     -4.65562682	      3.27808588	      5.53338976
      1.45000000	     -9.28684429	     -3.10332456	      0.80268215	     -0.50829333	      1.21657328	     -0.86977097	     -2.51263151	     11.24147430	      7.22679635	    -13.46183125	     11.86316789	     -4.12237339	      7.50233612	     34.03219062	      4.19979733	      6.31403012	    -10.63819153	     -3.04484984	     -3.11615209	      8.60209231	     -4.68467933	      3.19485936	      5.44184527
      1.45500000	     -9.19384300	     -3.08783305	      0.81385802	     -0.50249884	      1.21647895	     -0.87001717	     -2.58836677	     11.18491134	      7.01419882	    -14.30329616	     11.88356637	     -3.52513541	      8.23840342	     34.04678336	      4.37558939	      6.58904801	    -11.50850457	     -3.76366559	     -3.31414084	      8.72283213	     -4.72341269	      3.08998475	      5.35133194
      1.46000000	     -9.09284670	     -3.05862204	      0.84060730	     -0.49666491	      1.21645840	     -0.87028201	     -2.63145817	     11.10876707	      6.73312154	    -15.20894413	     11.86987409	     -2.88927216	      9.04616681	     34.04942303	      4.56880118	      6.89310153	    -12.38987284	     -4.51409853	     -3.54757485	      8.82538788	     -4.76840615	      2.96733044	      5.25259168
      1.46500000	     -8.97475224	     -3.01371412	      0.88470958	     -0.49078237	      1.21652274	     -0.87056221	     -2.65195040	     11.01039224	      6.37897843	    -16.17677043	     11.81099082	     -2.22455674	      9.93359785	     34.02761470	      4.78053238	      7.21089904	    -13.28050438	     -5.26858459	     -3.80732324	      8.90924121	     -4.82656360	      2.82245325	      5.15266003
      1.47000000	     -8.85573114	     -2.95609319	      0.94533369	     -0.48483997	      1.21665838	     -0.87083752	     -2.62502686	     10.89487467	      5.94964290	    -17.22015137	     11.68962531	     -1.54568318	     10.88294057	     33.99703843	      5.00567464	      7.53015859	    -14.17691380	     -6.00002691	     -4.07738370	      8.96462845	     -4.87634408	      2.65185153	      5.04938590
      1.47500000	     -8.71429147	     -2.88729399	      1.02099944	     -0.47886545	      1.21687727	     -0.87116580	     -2.57164914	     10.75407273	      5.44239428	    -18.33618437	     11.54145865	     -0.82174452	     11.94036713	     33.92848337	      5.24828185	      7.87718013	    -15.07182925	     -6.69596821	     -4.36929372	      9.00794471	     -4.94860889	      2.48294445	      4.94248510
      1.48000000	     -8.56668334	     -2.80344791	      1.11216275	     -0.47285197	      1.21716914	     -0.87151094	     -2.46295891	     10.58645799	      4.85306915	    -19.54646844	     11.32249392	     -0.09229390	     13.08435588	     33.84012695	      5.50961902	      8.21887272	    -15.96281716	     -7.33796062	     -4.67128104	      9.02414067	     -5.02662613	      2.29515286	      4.83698040
      1.48500000	     -8.38723721	     -2.70300793	      1.20853184	     -0.46676996	      1.21756220	     -0.87182658	     -2.34195750	     10.39104518	      4.20520933	    -20.82410278	     11.04656857	      0.62010615	     14.39687535	     33.68467609	      5.77933608	      8.53281486	    -16.82444753	     -7.90761857	     -5.03062430	      9.02776058	     -5.12486555	      2.06948905	      4.76336507
      1.49000000	     -8.22549409	     -2.59190045	      1.31780463	     -0.46065254	      1.21800019	     -0.87219197	     -2.12457620	     10.16435977	      3.48498391	    -22.22121885	     10.66188459	      1.34600499	     15.68808491	     33.51310828	      6.06469255	      8.86379897	    -17.64092372	     -8.38319047	     -5.31455475	      9.00861433	     -5.20471540	      1.85174894	      4.64605333
      1.49500000	     -8.04837243	     -2.47101136	      1.45698503	     -0.45450221	      1.21851167	     -0.87259180	     -1.87278146	      9.90732239	      2.68469941	    -23.68422288	     10.20306212	      2.01442958	     17.11064368	     33.28879272	      6.37284568	      9.22624050	    -18.41253797	     -8.81224311	     -5.58314595	      8.98171081	     -5.29118903	      1.61926160	      4.55264296
      1.50000000	     -7.90147681	     -2.35254022	      1.61400304	     -0.44834354	      1.21899035	     -0.87304059	     -1.50227719	      9.62420143	      1.79748040	    -25.28263185	      9.66361270	      2.76381036	     18.32952105	     33.10248108	      6.69492881	      9.58044298	    -19.21604003	     -9.03084112	     -5.81278919	      8.94489859	     -5.34740801	      1.39640809	      4.42977635
      1.50500000	     -7.71375863	     -2.18789185	      1.76709728	     -0.44213399	      1.21961454	     -0.87346255	     -1.13270321	      9.26942874	      0.91153922	    -26.92430065	      8.98292189	      3.33820158	     19.94643807	     32.75458890	      7.04384421	      9.93924053	    -19.82845610	     -9.28948866	     -6.10063819	      8.89347771	     -5.44257306	      1.12325913	      4.31131324
      1.51000000	     -7.56071285	     -2.01140936	      1.92706858	     -0.43592698	      1.22020696	     -0.87392527	     -0.64592477	      8.86494124	     -0.02900973	    -28.68615770	      8.20320238	      3.97746641	     21.31379495	     32.42853284	      7.41079623	     10.27939756	    -20.42922940	     -9.41445245	     -6.33239038	      8.84553690	     -5.49649685	      0.84363502	      4.22449214
